<svg xmlns="http://www.w3.org/2000/svg" viewBox="0 0 155 66">
  <title>Thorne Harbour Health</title>
  <g fill="none" fill-rule="evenodd">
    <path id="logo-mark" fill="#D2232A" d="M139.257738 32.8149565l15.66775-10.19444-9.766593-14.91852783-13.716504 8.30035193-.432725-13.11985981L130.99572 0h-18.210309l-.013547 2.88248079-.432327 13.11985981-13.7173005-8.30035193-9.7661954 14.91852783 15.6681489 10.19444-15.6681489 10.1940424 9.7661954 14.9189254 13.7173005-8.3007496.432327 13.1198598.013547 2.8824808h18.210309l.013946-2.8824808.432725-13.1198598 13.716504 8.3007496 9.766593-14.9189254-15.66775-10.1940424"/>
    <g id="logo-text" fill="#FFFFFE">
      <path d="M25.4311568 17.9047779h9.4486247v11.1804472h-9.4486247v16.6364864c-.0601671 2.1827337.3028278 3.7671042 1.0889846 4.753509.7542802 1.0468375 2.2058612 1.5696599 4.3535475 1.5696599 1.3643188 0 2.6995502-.0898539 4.0060926-.2691641v13.6888019c-3.6717866.1184799-7.4300386.2969949-11.2751543.5343523-1.9082133 0-3.7435089-.1486963-5.5070822-.4456912-1.8213496-.3566325-3.5124036-.9657305-5.0735604-1.8280892-1.5328663-.9808386-2.7469666-2.4073684-3.64309771-4.2803846-1.01168381-1.9020397-1.51772494-4.4282856-1.51772494-7.5795329V29.0852251H0V17.9047779h7.86316195V3.45420594H25.4311568V17.9047779M37.6773522.05407136h17.5811439V23.0499067h.1733291c1.577892-1.9084011 3.5737661-3.4450615 5.988419-4.6079934 2.3508998-1.1335107 5.4923393-1.7000673 9.4223265-1.7000673 4.3105141 0 8.0141774 1.3124233 11.1101928 3.9368724 3.0661311 2.6248466 4.6284833 6.6813917 4.6866581 12.1688399v32.6145744H69.0630591V40.5722092c.0597687-2.8005785-.2681619-5.0640217-.9833933-6.7919199-.7494987-1.6980793-2.499126-2.5477154-5.2468895-2.5477154-1.7177506-.0592399-3.3570051.4918109-4.9177634 1.65355-.7494988.5963754-1.3902186 1.5048538-1.9205656 2.7262305-.5000643 1.2806166-.7494987 2.8745291-.7494987 4.7805447v25.0692336H37.6773522V.05407136"/>
    </g>
  </g>
</svg>